
<svg width="32px" height="32px" viewBox="0 0 32 32" version="1.1" xmlns="http://www.w3.org/2000/svg" xmlns:xlink="http://www.w3.org/1999/xlink">
    <g stroke="none" stroke-width="1" fill="none" fill-rule="evenodd">
        <path d="M21.6710892,21.9033281 L32,31.8289413 L15.751763,31.8289413 C13.4950522,31.8289413 11.4113871,31.4146217 9.50070522,30.5859701 C7.59002336,29.7573185 5.92760463,28.6179396 4.51339915,27.1677993 C3.09919368,25.7176589 1.99342195,24.0307863 1.19605078,22.1071308 C0.398679605,20.1834752 0,18.1118773 0,15.8922747 C0,13.7022669 0.398679605,11.6380675 1.19605078,9.6996146 C1.99342195,7.76116172 3.09919368,6.07428909 4.51339915,4.63894612 C5.92760463,3.20360314 7.59002336,2.07162282 9.50070522,1.24297121 C11.4113871,0.414319593 13.4950522,0 15.751763,0 C18.0084739,0 20.122228,0.414319593 22.0930889,1.24297121 C24.0639497,2.07162282 25.7790242,3.20360314 27.2383639,4.63894612 C28.6977036,6.07428909 29.8561311,7.76116172 30.7136812,9.6996146 C31.5712314,11.6380675 32,13.7022669 32,15.8922747 C32,16.6913316 31.9021741,17.6841409 31.5369787,19.3309106 C31.1717833,20.9776803 30.4513967,22.4562873 30.1690569,23.1503387 L25.0775416,18.469774 C25.5890628,17.0040751 25.5435938,13.5521263 24.7334274,11.941402 C23.9232609,10.3306776 23.5223364,9.61823417 22.6346968,8.70079846 C21.7470572,7.78336274 20.716508,7.05830345 19.5430183,6.52559884 C18.3695287,5.99289423 17.1057896,5.72654592 15.751763,5.72654592 C14.3977365,5.72654592 13.1565642,5.99289423 12.0282087,6.52559884 C10.8998533,7.05830345 9.9294822,7.78336274 9.11706629,8.70079846 C8.30465038,9.61823417 7.66525856,10.6984245 7.19887165,11.941402 C6.73248474,13.1843794 6.49929478,14.5013238 6.49929478,15.8922747 C6.49929478,17.3128204 6.73248474,18.6445619 7.19887165,19.8875393 C7.66525856,21.1305167 8.30465038,22.2181057 9.11706629,23.1503387 C9.9294822,24.0825718 10.8998533,24.8150297 12.0282087,25.3477343 C13.1565642,25.8804389 14.3977365,26.1467872 15.751763,26.1467872 C16.6544474,26.1467872 17.5345514,26.013613 18.3921016,25.7472607 L14.1999996,21.9033281 L21.6710892,21.9033281 Z" fill="#fff"></path>
    </g>
</svg>
